PathFileType	4	(X/Y/Z)	OpenSim_Sub06_CSBaseline_Accel.trc
DataRate	CameraRate	NumFrames	NumMarkers	Units	OrigDataRate	OrigDataStartFrame	OrigNumFrames
100	100	17	8	m	100	3185	8492
Frame#	Time	torso_imu_offset_imu	pelvis_imu_offset_imu	tibia_r_imu_offset_imu	femur_r_imu_offset_imu	tibia_l_imu_offset_imu	femur_l_imu_offset_imu	toes_r_imu_offset_imu	toes_l_imu_offset_imu
				X1	Y1	Z1	X2	Y2	Z2	X3	Y3	Z3	X4	Y4	Z4	X5	Y5	Z5	X6	Y6	Z6	X7	Y7	Z7	X8		Y8	Z8	

3185	31.84000000	9.63022861	-1.23013874	7.62784102	9.66941266	2.63186731	4.19369043	10.76661887	-1.77549411	1.56102096	10.14866771	-2.17738699	-1.41309926	8.38798405	-1.93712882	3.57572907	8.09109786	9.24238017	1.21866302	4.33692472	-3.11041464	8.99619961	15.92922275	-5.70775073	2.12164924
3186	31.85000000	9.59632283	-1.20311012	7.58021732	9.81902278	2.82742445	4.10978865	10.71614533	-1.80337286	1.74412036	10.01336005	-2.67066902	-1.60478897	9.24155466	-1.44316224	2.90255681	8.49479715	9.06709499	1.27445809	4.76435562	-2.73964522	8.96484216	15.22985932	-5.41854421	1.07885966
3187	31.86000000	9.57279842	-1.23786157	7.61001813	9.92909229	3.02594842	3.87200502	10.69692466	-1.37254304	1.89265056	9.79287101	-2.85785019	-1.57500950	9.57988634	-1.46992202	2.31811857	8.86377711	8.54382863	0.82132188	4.44656222	-2.61662002	9.18887178	14.47716673	-5.51019690	0.42177592
3188	31.87000000	9.57429599	-1.28792558	7.70289321	9.72625569	2.88898412	3.60730083	10.74663176	-0.67062047	2.20471832	9.64214619	-3.03367108	-1.31917871	9.38654815	-1.58157916	1.78763418	8.63899060	7.46317196	0.17802071	4.60797451	-2.90579695	9.06545629	14.66958263	-2.99670984	0.08684165
3189	31.88000000	9.50696644	-1.32959250	7.65156862	9.47157618	2.75153143	3.54482143	10.67768605	-0.26455485	2.46667980	9.72739492	-3.21428216	-1.02981416	10.48581962	-1.36875529	1.48858006	7.91553349	6.11788625	-0.21111864	5.03983369	-2.25136509	9.41610733	13.16186474	0.30121712	-6.02034728
3190	31.89000000	9.67124994	-1.27722558	7.77530260	9.09798917	2.31030341	3.37857167	10.87357696	-0.19692584	2.63408139	9.80221610	-3.38261482	-0.90142013	11.34677505	-0.12100922	2.91090322	7.41535833	4.99751462	-0.57436426	4.86742840	-2.37165446	9.24902424	18.92195677	-10.30465576	-12.44473568
3191	31.90000000	9.60842581	-1.27303788	7.67900719	8.99713037	1.96004926	3.55837733	10.92022458	-0.22142016	3.30868571	9.87541359	-3.44671404	-0.76952584	11.56203558	1.02445139	4.25442003	7.61068476	4.48258469	-0.75511634	5.22596845	-2.26212930	9.50009152	27.47834610	-2.73998876	38.29806731
3192	31.91000000	10.00467421	-1.20289965	7.77903283	9.20652785	1.50987141	4.74148433	11.23106545	-0.12394770	3.65319625	10.12389810	-3.60181269	-0.60526040	13.45782496	2.73052829	5.99927589	9.22857236	4.55321257	0.38659641	4.94963638	-2.58540182	10.13661991	51.01512166	-25.71825641	4.18346886
3193	31.92000000	11.36141468	-0.94807098	7.96956863	9.85811696	0.64435037	5.78616561	12.20923462	-0.09220751	3.87990737	10.79085905	-3.59371678	-0.45885067	15.39889016	3.00134517	8.20772003	12.46827627	4.82908435	-0.14007587	4.58507554	-3.36411298	10.34297708	-41.80575922	-0.36078475	6.15039734
3194	31.93000000	12.17156121	-0.46248900	8.13236784	10.84468965	-0.53284425	6.40120875	13.13330737	-0.17953792	5.13013381	11.50553065	-3.30028471	-0.59391468	16.63959934	2.19570334	8.32351929	18.08776334	5.67181042	-0.53137910	4.66557398	-3.48524132	10.50928379	21.01316558	22.78162177	26.62143658
3195	31.94000000	11.98914301	-0.24333503	8.26253355	12.16981035	-1.45468913	6.56247428	13.41151303	-0.41316286	5.37251187	11.46821319	-3.14869852	-0.75144252	14.64612302	3.53900335	7.57895302	20.05823484	6.07311720	-1.41066510	5.01853269	-2.68534332	10.88961814	1.40009379	-8.40681837	10.89667838
3196	31.95000000	11.20770193	-0.10073037	8.45500290	13.52530965	-2.42831221	6.55728580	13.85103990	-1.15871613	5.10001370	12.20687602	-2.52045126	-0.20724225	9.70759540	5.63036822	8.41766723	15.60773705	3.92424646	0.26692298	4.86026078	-3.32379862	11.05230563	4.66637646	-1.48681271	9.74951987
3197	31.96000000	10.54545866	-0.03344938	8.41447628	13.18132491	-2.54643120	6.64227095	14.26980902	-1.75910454	5.10220498	11.97440930	-2.04368923	0.30234425	5.61642563	1.42183169	7.21664601	10.38503201	0.78078651	1.40014941	4.94344439	-3.62685242	10.86130653	5.74827360	4.78662343	12.88985398
3198	31.97000000	9.97481875	0.16701534	8.02821934	11.49674043	-1.10889399	6.43187244	14.49715851	-2.51855477	3.42270015	11.20010512	-1.92491390	0.79325727	1.48075229	-6.61275899	-1.05515248	9.13730955	0.93451127	-0.85802855	4.30618193	-2.93995900	11.62729871	6.30747953	-1.33680272	10.26565577
3199	31.98000000	9.47813376	0.48893015	7.49089027	10.22825573	0.39918207	6.23024704	14.81725092	-2.14650613	2.91624707	10.78038723	-1.29435830	0.75492866	5.89199844	-10.54117036	-7.17924633	6.97484142	-2.73415963	-2.61554000	4.47318155	-4.98379184	11.00479430	5.90283105	-0.17556654	10.80199382
3200	31.99000000	9.18386352	0.65174299	6.87330571	9.09334767	1.17477512	6.26972025	14.77949825	-0.98594137	2.18231898	11.13838529	-1.00333026	0.89134289	11.94451292	-13.28430905	-8.40677853	5.78789510	-3.55350304	-3.56733881	5.79449219	-4.53447669	11.08547550	4.73061948	0.76131242	11.19201891
3201	32.00000000	8.79270937	0.92670564	6.47551224	8.12530969	1.39753923	6.38700895	14.24495166	0.32184114	2.45364339	9.88057351	-0.61275017	1.10868966	12.62927841	-14.45506722	-4.53585379	5.06151585	-3.34556183	-3.59314081	7.14619752	-7.07949316	9.46090489	5.60936338	1.53325790	11.12901012
